<svg width="106" height="52" viewBox="0 0 106 52" fill="none" xmlns="http://www.w3.org/2000/svg">
<g clip-path="url(#clip0_175_1172)">
<path fill-rule="evenodd" clip-rule="evenodd" d="M91.7338 51.4877H97.9459V24.2142H91.7338V51.4877ZM71.8192 50.9301C74.4171 51.5065 76.996 52.0038 79.6394 52.0038C86.8035 52.0038 89.0562 48.0705 89.0562 44.8869C89.0562 38.2673 77.8227 35.3135 77.8227 30.977C77.8227 29.7639 79.0591 28.0873 82.188 28.0873C84.1601 28.0873 86.1284 28.6147 87.945 29.2665L87.3344 24.4817C85.1916 24.0296 82.9692 23.7508 80.7961 23.7508C74.1174 23.7508 71.6144 27.0625 71.6144 30.5739C71.6144 37.039 82.8478 40.7199 82.8478 44.6382C82.8478 46.9214 80.4244 47.6673 78.4827 47.6673C75.9796 47.6673 73.4613 46.9214 71.1631 45.9117L71.8192 50.9301ZM30.4578 49.7659L33.8218 41.9632H44.4295L47.4332 49.7659L53.7515 51.1034L53.8615 51.1184C56.1598 51.6158 58.4619 52.0038 60.7905 52.0038C67.9546 52.0038 70.2073 48.0705 70.2073 44.8869C70.2073 38.2673 58.9739 35.3135 58.9739 30.977C58.9739 29.7639 60.2102 28.0873 63.3391 28.0873C65.3112 28.0873 67.2795 28.6147 69.0961 29.2665L68.4855 24.4817C66.3428 24.0296 64.1203 23.7508 61.9472 23.7508C55.2686 23.7508 52.7655 27.0625 52.7655 30.5739C52.7655 37.039 63.999 40.7199 63.999 44.6382C63.999 46.9214 61.5755 47.6673 59.6338 47.6673C57.1459 47.6673 54.6731 46.9364 52.39 45.9267L43.3941 24.218H36.0746L25.6261 45.9267C23.4682 46.5484 21.1206 46.9214 18.2421 46.9214C11.8441 46.9214 7.2589 42.664 7.2589 35.4529C7.2589 28.2418 11.8441 24.0145 18.2421 24.0145C21.7919 24.0145 24.295 24.5571 26.6729 25.2126L26.6274 20.3487L26.5819 19.8514C23.8285 19.3239 20.9955 18.9509 18.2459 18.9509C8.37012 18.9472 0 24.0108 0 35.4491C0 46.8875 8.37012 52.0001 18.2383 52.0001C23.9157 51.9548 30.454 49.7621 30.454 49.7621L30.4578 49.7659ZM35.464 37.6305L39.5296 28.5243L43.0642 37.6305H35.4602H35.464Z" fill="#002D4B"/>
<path fill-rule="evenodd" clip-rule="evenodd" d="M91.3886 21.3395C91.218 21.2792 91.0435 21.2302 90.888 21.1699L105.857 11.1294C105.857 11.2838 105.842 11.4383 105.842 11.5965L91.3886 21.3395ZM102.478 3.06299C102.869 3.43598 103.244 3.85418 103.574 4.29122L85.3509 16.5057C85.0703 16.0234 84.82 15.5412 84.6152 15.0288C84.6152 15.0288 93.2356 9.26441 102.478 3.06299ZM84.3156 14.2037C84.0956 13.5029 83.9553 12.8059 83.8794 12.0901L100.009 1.27716C100.65 1.62001 101.245 2.02314 101.807 2.47525L84.3194 14.2075L84.3156 14.2037ZM83.8301 11.5136C83.6443 7.81389 85.3471 4.10284 88.6808 1.8649C91.9954 -0.357965 96.1103 -0.542576 99.4895 1.02473L83.8301 11.5136ZM86.849 18.4912C86.5683 18.1973 86.2877 17.8695 86.0374 17.5267L104.276 5.29716C104.496 5.67015 104.697 6.04314 104.871 6.41613L86.849 18.4912ZM88.8666 20.1376C88.6011 19.9681 88.3356 19.7797 88.0853 19.5951L105.432 7.97213C105.527 8.266 105.588 8.57871 105.652 8.88765L88.8666 20.1376Z" fill="#FCFC1B"/>
</g>
<defs>
<clipPath id="clip0_175_1172">
<rect width="105.857" height="52" fill="white"/>
</clipPath>
</defs>
</svg>
