<svg width="24" height="24" viewBox="0 0 24 24" fill="none" xmlns="http://www.w3.org/2000/svg">
<rect width="24" height="24" rx="12" fill="white"/>
<g clip-path="url(#clip0_175_1303)">
<path fill-rule="evenodd" clip-rule="evenodd" d="M9.35462 5.62181C10.0389 5.59031 10.257 5.58331 12 5.58331C13.743 5.58331 13.9612 5.5909 14.6449 5.62181C15.3285 5.65273 15.7952 5.76181 16.2035 5.9199C16.6311 6.08148 17.019 6.33406 17.3399 6.66073C17.6665 6.98098 17.9185 7.36831 18.0795 7.79648C18.2382 8.20481 18.3467 8.67148 18.3782 9.35398C18.4097 10.0394 18.4167 10.2576 18.4167 12C18.4167 13.743 18.4091 13.9611 18.3782 14.6454C18.3473 15.3279 18.2382 15.7946 18.0795 16.2029C17.9185 16.6311 17.6661 17.0191 17.3399 17.3398C17.019 17.6665 16.6311 17.9185 16.2035 18.0795C15.7952 18.2381 15.3285 18.3466 14.646 18.3781C13.9612 18.4096 13.743 18.4166 12 18.4166C10.257 18.4166 10.0389 18.4091 9.35462 18.3781C8.67212 18.3472 8.20546 18.2381 7.79712 18.0795C7.36891 17.9185 6.98094 17.666 6.66021 17.3398C6.33376 17.0194 6.08114 16.6316 5.91996 16.2035C5.76187 15.7951 5.65337 15.3285 5.62187 14.646C5.59037 13.9606 5.58337 13.7424 5.58337 12C5.58337 10.257 5.59096 10.0388 5.62187 9.35515C5.65279 8.67148 5.76187 8.20481 5.91996 7.79648C6.08138 7.36836 6.33419 6.98058 6.66079 6.66015C6.98106 6.33377 7.36865 6.08115 7.79654 5.9199C8.20487 5.76181 8.67154 5.65331 9.35404 5.62181H9.35462ZM14.593 6.77681C13.9163 6.7459 13.7133 6.73948 12 6.73948C10.2868 6.73948 10.0838 6.7459 9.40712 6.77681C8.78121 6.8054 8.44171 6.90981 8.21537 6.9979C7.91612 7.11456 7.70204 7.25281 7.47746 7.4774C7.26457 7.68451 7.10073 7.93664 6.99796 8.21531C6.90987 8.44165 6.80546 8.78115 6.77687 9.40706C6.74596 10.0837 6.73954 10.2867 6.73954 12C6.73954 13.7132 6.74596 13.9162 6.77687 14.5929C6.80546 15.2188 6.90987 15.5583 6.99796 15.7846C7.10062 16.0629 7.26454 16.3155 7.47746 16.5226C7.68454 16.7355 7.93712 16.8994 8.21537 17.0021C8.44171 17.0901 8.78121 17.1946 9.40712 17.2231C10.0838 17.2541 10.2862 17.2605 12 17.2605C13.7139 17.2605 13.9163 17.2541 14.593 17.2231C15.2189 17.1946 15.5584 17.0901 15.7847 17.0021C16.084 16.8854 16.298 16.7471 16.5226 16.5226C16.7355 16.3155 16.8995 16.0629 17.0021 15.7846C17.0902 15.5583 17.1946 15.2188 17.2232 14.5929C17.2541 13.9162 17.2605 13.7132 17.2605 12C17.2605 10.2867 17.2541 10.0837 17.2232 9.40706C17.1946 8.78115 17.0902 8.44165 17.0021 8.21531C16.8855 7.91606 16.7472 7.70198 16.5226 7.4774C16.3155 7.26452 16.0634 7.10069 15.7847 6.9979C15.5584 6.90981 15.2189 6.8054 14.593 6.77681ZM11.1805 13.9781C11.6382 14.1686 12.1478 14.1943 12.6224 14.0508C13.097 13.9073 13.507 13.6035 13.7825 13.1913C14.0579 12.7791 14.1817 12.284 14.1327 11.7906C14.0837 11.2973 13.865 10.8362 13.5138 10.4862C13.2899 10.2625 13.0192 10.0912 12.7212 9.98465C12.4232 9.87809 12.1053 9.83894 11.7903 9.87001C11.4754 9.90107 11.1712 10.0016 10.8998 10.1643C10.6283 10.327 10.3963 10.5479 10.2205 10.8111C10.0446 11.0742 9.92932 11.3731 9.88284 11.6861C9.83637 11.9992 9.85988 12.3187 9.95169 12.6215C10.0435 12.9244 10.2013 13.2032 10.4138 13.4377C10.6263 13.6723 10.8881 13.8568 11.1805 13.9781ZM9.66787 9.66781C9.97414 9.36155 10.3377 9.11861 10.7379 8.95286C11.138 8.78711 11.5669 8.7018 12 8.7018C12.4332 8.7018 12.862 8.78711 13.2622 8.95286C13.6624 9.11861 14.0259 9.36155 14.3322 9.66781C14.6385 9.97408 14.8814 10.3377 15.0472 10.7378C15.2129 11.138 15.2982 11.5669 15.2982 12C15.2982 12.4331 15.2129 12.862 15.0472 13.2621C14.8814 13.6623 14.6385 14.0259 14.3322 14.3321C13.7137 14.9507 12.8748 15.2982 12 15.2982C11.1253 15.2982 10.2864 14.9507 9.66787 14.3321C9.04934 13.7136 8.70186 12.8747 8.70186 12C8.70186 11.1252 9.04934 10.2863 9.66787 9.66781ZM16.0297 9.19298C16.1056 9.12139 16.1664 9.03529 16.2084 8.9398C16.2504 8.8443 16.2728 8.74134 16.2744 8.63702C16.2759 8.5327 16.2565 8.42913 16.2172 8.33245C16.178 8.23577 16.1198 8.14794 16.046 8.07417C15.9722 8.00039 15.8844 7.94217 15.7877 7.90295C15.6911 7.86373 15.5875 7.8443 15.4832 7.84582C15.3788 7.84734 15.2759 7.86978 15.1804 7.9118C15.0849 7.95383 14.9988 8.01459 14.9272 8.09048C14.788 8.23808 14.7117 8.43413 14.7147 8.63702C14.7177 8.83991 14.7996 9.03366 14.943 9.17714C15.0865 9.32062 15.2803 9.40253 15.4832 9.40549C15.6861 9.40845 15.8821 9.33222 16.0297 9.19298Z" fill="#002D4B"/>
</g>
<defs>
<clipPath id="clip0_175_1303">
<rect width="14" height="14" fill="white" transform="translate(5 5)"/>
</clipPath>
</defs>
</svg>
