<svg width="25" height="24" viewBox="0 0 25 24" fill="none" xmlns="http://www.w3.org/2000/svg">
<rect x="0.51355" width="24" height="24" rx="12" fill="#002D4B"/>
<path fill-rule="evenodd" clip-rule="evenodd" d="M9.86811 5.62187C10.5524 5.59037 10.7705 5.58337 12.5135 5.58337C14.2565 5.58337 14.4747 5.59096 15.1584 5.62187C15.842 5.65279 16.3087 5.76187 16.717 5.91996C17.1446 6.08154 17.5325 6.33412 17.8534 6.66079C18.18 6.98104 18.432 7.36837 18.593 7.79654C18.7517 8.20487 18.8602 8.67154 18.8917 9.35404C18.9232 10.0395 18.9302 10.2576 18.9302 12C18.9302 13.743 18.9226 13.9612 18.8917 14.6455C18.8608 15.328 18.7517 15.7946 18.593 16.203C18.432 16.6312 18.1796 17.0192 17.8534 17.3399C17.5325 17.6665 17.1446 17.9185 16.717 18.0795C16.3087 18.2382 15.842 18.3467 15.1595 18.3782C14.4747 18.4097 14.2565 18.4167 12.5135 18.4167C10.7705 18.4167 10.5524 18.4091 9.86811 18.3782C9.18561 18.3473 8.71895 18.2382 8.31061 18.0795C7.8824 17.9185 7.49442 17.6661 7.1737 17.3399C6.84725 17.0194 6.59463 16.6316 6.43345 16.2035C6.27536 15.7952 6.16686 15.3285 6.13536 14.646C6.10386 13.9606 6.09686 13.7425 6.09686 12C6.09686 10.257 6.10445 10.0389 6.13536 9.35521C6.16628 8.67154 6.27536 8.20487 6.43345 7.79654C6.59487 7.36842 6.84768 6.98064 7.17428 6.66021C7.49455 6.33383 7.88214 6.08122 8.31003 5.91996C8.71836 5.76187 9.18503 5.65337 9.86753 5.62187H9.86811ZM15.1064 6.77687C14.4298 6.74596 14.2268 6.73954 12.5135 6.73954C10.8003 6.73954 10.5973 6.74596 9.92061 6.77687C9.2947 6.80546 8.9552 6.90987 8.72886 6.99796C8.42961 7.11462 8.21553 7.25287 7.99095 7.47746C7.77806 7.68457 7.61422 7.93671 7.51145 8.21537C7.42336 8.44171 7.31895 8.78121 7.29036 9.40712C7.25945 10.0838 7.25303 10.2868 7.25303 12C7.25303 13.7133 7.25945 13.9163 7.29036 14.593C7.31895 15.2189 7.42336 15.5584 7.51145 15.7847C7.61411 16.063 7.77803 16.3155 7.99095 16.5226C8.19803 16.7355 8.45061 16.8995 8.72886 17.0021C8.9552 17.0902 9.2947 17.1946 9.92061 17.2232C10.5973 17.2541 10.7997 17.2605 12.5135 17.2605C14.2274 17.2605 14.4298 17.2541 15.1064 17.2232C15.7324 17.1946 16.0719 17.0902 16.2982 17.0021C16.5974 16.8855 16.8115 16.7472 17.0361 16.5226C17.249 16.3155 17.4129 16.063 17.5156 15.7847C17.6037 15.5584 17.7081 15.2189 17.7367 14.593C17.7676 13.9163 17.774 13.7133 17.774 12C17.774 10.2868 17.7676 10.0838 17.7367 9.40712C17.7081 8.78121 17.6037 8.44171 17.5156 8.21537C17.3989 7.91612 17.2607 7.70204 17.0361 7.47746C16.829 7.26458 16.5769 7.10075 16.2982 6.99796C16.0719 6.90987 15.7324 6.80546 15.1064 6.77687ZM11.6939 13.9781C12.1517 14.1687 12.6613 14.1944 13.1359 14.0509C13.6105 13.9074 14.0205 13.6036 14.296 13.1913C14.5714 12.7791 14.6952 12.284 14.6462 11.7907C14.5972 11.2973 14.3784 10.8363 14.0273 10.4863C13.8034 10.2626 13.5327 10.0913 13.2347 9.98471C12.9367 9.87815 12.6188 9.839 12.3038 9.87007C11.9889 9.90113 11.6847 10.0016 11.4132 10.1644C11.1418 10.3271 10.9098 10.548 10.734 10.8111C10.5581 11.0743 10.4428 11.3731 10.3963 11.6862C10.3499 11.9992 10.3734 12.3187 10.4652 12.6216C10.557 12.9245 10.7148 13.2032 10.9273 13.4378C11.1398 13.6724 11.4016 13.8569 11.6939 13.9781ZM10.1814 9.66787C10.4876 9.36161 10.8512 9.11867 11.2514 8.95292C11.6515 8.78717 12.0804 8.70186 12.5135 8.70186C12.9467 8.70186 13.3755 8.78717 13.7757 8.95292C14.1758 9.11867 14.5394 9.36161 14.8457 9.66787C15.152 9.97414 15.3949 10.3377 15.5607 10.7379C15.7264 11.138 15.8117 11.5669 15.8117 12C15.8117 12.4332 15.7264 12.862 15.5607 13.2622C15.3949 13.6624 15.152 14.0259 14.8457 14.3322C14.2272 14.9507 13.3883 15.2982 12.5135 15.2982C11.6388 15.2982 10.7999 14.9507 10.1814 14.3322C9.56283 13.7137 9.21535 12.8748 9.21535 12C9.21535 11.1253 9.56283 10.2864 10.1814 9.66787ZM16.5432 9.19304C16.6191 9.12145 16.6798 9.03535 16.7219 8.93986C16.7639 8.84436 16.7863 8.74141 16.7879 8.63708C16.7894 8.53276 16.77 8.42919 16.7307 8.33251C16.6915 8.23583 16.6333 8.14801 16.5595 8.07423C16.4857 8.00045 16.3979 7.94223 16.3012 7.90301C16.2045 7.86379 16.101 7.84436 15.9967 7.84588C15.8923 7.8474 15.7894 7.86984 15.6939 7.91186C15.5984 7.95389 15.5123 8.01465 15.4407 8.09054C15.3015 8.23814 15.2252 8.43419 15.2282 8.63708C15.2311 8.83997 15.3131 9.03372 15.4565 9.1772C15.6 9.32068 15.7938 9.40259 15.9967 9.40555C16.1995 9.40851 16.3956 9.33228 16.5432 9.19304Z" fill="white"/>
</svg>
