<svg width="25" height="24" viewBox="0 0 25 24" fill="none" xmlns="http://www.w3.org/2000/svg">
<rect x="0.51355" width="24" height="24" rx="12" fill="#002D4B"/>
<path fill-rule="evenodd" clip-rule="evenodd" d="M11.0138 10.2319H13.1803V11.311C13.4924 10.6904 14.2927 10.1327 15.495 10.1327C17.7997 10.1327 18.3469 11.3682 18.3469 13.635V17.8333H16.0136V14.1513C16.0136 12.8604 15.7015 12.1324 14.907 12.1324C13.8051 12.1324 13.3472 12.917 13.3472 14.1507V17.8333H11.0138V10.2319ZM7.01274 17.7341H9.34607V10.1327H7.01274V17.7341ZM9.68032 7.65413C9.68041 7.8497 9.64162 8.04335 9.56621 8.2238C9.49081 8.40426 9.38028 8.56793 9.24107 8.70529C8.95897 8.98566 8.57713 9.14259 8.1794 9.14163C7.78238 9.14136 7.40142 8.98483 7.1189 8.70588C6.98019 8.56804 6.87005 8.40419 6.79477 8.22371C6.7195 8.04323 6.68057 7.84967 6.68024 7.65413C6.68024 7.25921 6.83774 6.88121 7.11949 6.60238C7.40175 6.32305 7.78288 6.16645 8.17999 6.16663C8.57782 6.16663 8.95932 6.32354 9.24107 6.60238C9.52224 6.88121 9.68032 7.25921 9.68032 7.65413Z" fill="white"/>
</svg>
