<svg width="24" height="24" viewBox="0 0 24 24" fill="none" xmlns="http://www.w3.org/2000/svg">
<rect width="24" height="24" rx="12" fill="white"/>
<path fill-rule="evenodd" clip-rule="evenodd" d="M10.5002 10.2319H12.6667V11.3111C12.9788 10.6904 13.7791 10.1328 14.9814 10.1328C17.2861 10.1328 17.8333 11.3683 17.8333 13.6351V17.8334H15.5V14.1514C15.5 12.8604 15.1879 12.1324 14.3934 12.1324C13.2915 12.1324 12.8335 12.917 12.8335 14.1508V17.8334H10.5002V10.2319ZM6.49913 17.7342H8.83246V10.1328H6.49913V17.7342ZM9.16671 7.65419C9.1668 7.84976 9.12801 8.04341 9.0526 8.22386C8.9772 8.40432 8.86667 8.56799 8.72746 8.70535C8.44536 8.98572 8.06352 9.14265 7.66579 9.14169C7.26877 9.14142 6.88781 8.98489 6.60529 8.70594C6.46658 8.5681 6.35643 8.40425 6.28116 8.22377C6.20589 8.04329 6.16696 7.84973 6.16663 7.65419C6.16663 7.25927 6.32413 6.88127 6.60588 6.60244C6.88814 6.32311 7.26927 6.16651 7.66638 6.16669C8.06421 6.16669 8.44571 6.3236 8.72746 6.60244C9.00863 6.88127 9.16671 7.25927 9.16671 7.65419Z" fill="#002D4B"/>
</svg>
