<svg width="106" height="52" viewBox="0 0 106 52" fill="none" xmlns="http://www.w3.org/2000/svg">
<g clip-path="url(#clip0_175_1289)">
<path fill-rule="evenodd" clip-rule="evenodd" d="M91.7338 51.4876H97.9459V24.2142H91.7338V51.4876ZM71.8192 50.93C74.4171 51.5064 76.996 52.0038 79.6394 52.0038C86.8035 52.0038 89.0562 48.0704 89.0562 44.8868C89.0562 38.2672 77.8227 35.3134 77.8227 30.977C77.8227 29.7638 79.0591 28.0872 82.188 28.0872C84.1601 28.0872 86.1284 28.6147 87.945 29.2665L87.3344 24.4817C85.1916 24.0296 82.9692 23.7508 80.7961 23.7508C74.1174 23.7508 71.6144 27.0624 71.6144 30.5738C71.6144 37.039 82.8478 40.7199 82.8478 44.6382C82.8478 46.9213 80.4244 47.6673 78.4827 47.6673C75.9796 47.6673 73.4613 46.9213 71.1631 45.9116L71.8192 50.93ZM30.4578 49.7658L33.8218 41.9632H44.4295L47.4332 49.7658L53.7515 51.1033L53.8615 51.1184C56.1598 51.6157 58.4619 52.0038 60.7905 52.0038C67.9546 52.0038 70.2073 48.0704 70.2073 44.8868C70.2073 38.2672 58.9739 35.3134 58.9739 30.977C58.9739 29.7638 60.2102 28.0872 63.3391 28.0872C65.3112 28.0872 67.2795 28.6147 69.0961 29.2665L68.4855 24.4817C66.3428 24.0296 64.1203 23.7508 61.9472 23.7508C55.2686 23.7508 52.7655 27.0624 52.7655 30.5738C52.7655 37.039 63.999 40.7199 63.999 44.6382C63.999 46.9213 61.5755 47.6673 59.6338 47.6673C57.1459 47.6673 54.6731 46.9364 52.39 45.9267L43.3941 24.2179H36.0746L25.6261 45.9267C23.4682 46.5483 21.1206 46.9213 18.2421 46.9213C11.8441 46.9213 7.2589 42.664 7.2589 35.4528C7.2589 28.2417 11.8441 24.0145 18.2421 24.0145C21.7919 24.0145 24.295 24.557 26.6729 25.2126L26.6274 20.3486L26.5819 19.8513C23.8285 19.3239 20.9955 18.9509 18.2459 18.9509C8.37012 18.9471 0 24.0107 0 35.4491C0 46.8874 8.37012 52 18.2383 52C23.9157 51.9548 30.454 49.7621 30.454 49.7621L30.4578 49.7658ZM35.464 37.6305L39.5296 28.5243L43.0642 37.6305H35.4602H35.464Z" fill="white"/>
<path fill-rule="evenodd" clip-rule="evenodd" d="M91.3886 21.3395C91.218 21.2792 91.0435 21.2303 90.888 21.17L105.857 11.1294C105.857 11.2839 105.842 11.4384 105.842 11.5966L91.3886 21.3395ZM102.478 3.06305C102.869 3.43604 103.244 3.85424 103.574 4.29128L85.3509 16.5057C85.0703 16.0235 84.82 15.5412 84.6152 15.0288C84.6152 15.0288 93.2356 9.26447 102.478 3.06305ZM84.3156 14.2038C84.0956 13.503 83.9553 12.806 83.8794 12.0901L100.009 1.27722C100.65 1.62007 101.245 2.0232 101.807 2.47531L84.3194 14.2075L84.3156 14.2038ZM83.8301 11.5137C83.6443 7.81395 85.3471 4.1029 88.6808 1.86496C91.9954 -0.357904 96.1103 -0.542515 99.4895 1.02479L83.8301 11.5137ZM86.849 18.4912C86.5683 18.1974 86.2877 17.8696 86.0374 17.5267L104.276 5.29722C104.496 5.67021 104.697 6.0432 104.871 6.41619L86.849 18.4912ZM88.8666 20.1377C88.6011 19.9681 88.3356 19.7798 88.0853 19.5951L105.432 7.97219C105.527 8.26606 105.588 8.57877 105.652 8.88771L88.8666 20.1377Z" fill="#FCFC1B"/>
</g>
<defs>
<clipPath id="clip0_175_1289">
<rect width="105.857" height="52" fill="white"/>
</clipPath>
</defs>
</svg>
