<svg width="27" height="26" viewBox="0 0 27 26" fill="none" xmlns="http://www.w3.org/2000/svg">
<g clip-path="url(#clip0_175_1176)">
<path d="M16.9326 9.74249C16.9292 13.3479 14.0175 16.2522 10.4083 16.2494C6.83642 16.2474 3.92952 13.3146 3.93494 9.71737C3.94037 6.14387 6.87307 3.24164 10.4714 3.24842C14.0196 3.25521 16.9353 6.18596 16.9319 9.74249H16.9326ZM15.3074 9.72212C15.3068 7.07102 13.1117 4.8733 10.466 4.87398C7.76536 4.87398 5.56211 7.04658 5.56007 9.71059C5.55804 12.4343 7.73007 14.6212 10.4402 14.6232C13.1273 14.6252 15.3081 12.4296 15.3074 9.72212Z" fill="#002D4B"/>
<path d="M25.9247 21.6595C24.4143 20.1303 22.8889 18.6167 21.3649 17.1011C20.6999 16.44 19.8015 16.4115 19.0842 17.0237C18.9831 17.1099 18.9336 17.114 18.8427 17.0183C18.5862 16.7489 18.329 16.4774 18.0515 16.2303C17.8866 16.0837 17.8988 15.9962 18.0305 15.8265C19.8972 13.4245 20.5838 10.7136 19.9514 7.7408C18.8434 2.53089 13.9524 -0.746009 8.72143 0.145839C4.82791 0.809634 1.66451 3.88427 0.876036 7.75776C0.81361 8.06591 0.822431 8.38966 0.685364 8.68219V10.8154C0.774254 10.8487 0.738969 10.9308 0.747112 10.9899C0.960177 12.5299 1.48741 13.9511 2.36749 15.2346C3.30185 16.5968 4.4866 17.6482 5.91495 18.388C5.91563 18.388 5.91631 18.3887 5.91766 18.3893C7.35415 19.2025 9.05799 19.4916 10.4734 19.4977C10.4802 19.4977 10.487 19.4984 10.4945 19.4984C10.5277 19.4984 10.561 19.4977 10.5942 19.497C11.399 19.4916 12.104 19.3945 12.6027 19.252C12.634 19.2466 12.6665 19.2384 12.6998 19.2283C14.1308 18.8855 15.4228 18.2448 16.5702 17.3007C16.6863 17.2056 16.7514 17.2009 16.8586 17.3142C17.1307 17.6041 17.4143 17.8837 17.7014 18.1586C17.797 18.2502 17.7923 18.2998 17.7068 18.4009C17.0947 19.1183 17.1246 20.0176 17.7848 20.6821C19.2946 22.2004 20.8091 23.714 22.3216 25.2289C22.6446 25.552 23.0198 25.7841 23.4629 25.9069C23.5382 25.928 23.6346 25.913 23.6848 25.9992H24.497C24.5133 25.9836 24.5283 25.9565 24.5466 25.9538C25.5576 25.778 26.2321 25.1902 26.5456 24.2291C26.8611 23.2619 26.6372 22.3809 25.924 21.6588L25.9247 21.6595ZM16.8064 14.748C15.5524 16.3762 13.9368 17.3468 12.0287 17.7113C8.90803 18.2169 7.21301 17.2124 6.30919 16.7618C3.42196 15.0778 1.78394 11.6129 2.4272 8.28988C3.272 3.92363 7.25237 1.05465 11.6399 1.7327C14.6696 2.20102 16.824 3.91753 17.9538 6.75868C19.0849 9.60254 18.673 12.3229 16.8057 14.748H16.8064ZM24.9713 23.8287C24.8119 24.1904 24.516 24.3567 24.1537 24.3764C23.8904 24.3662 23.6814 24.2814 23.5138 24.1137C22.0102 22.6144 20.5085 21.1124 19.0028 19.6151C18.9031 19.516 18.918 19.4644 19.0096 19.3755C19.3611 19.0335 19.7085 18.6866 20.0498 18.3344C20.1448 18.236 20.2005 18.2183 20.3077 18.3262C21.7923 19.8208 23.2838 21.3085 24.7685 22.8031C25.0568 23.0929 25.141 23.4431 24.9713 23.8273V23.8287Z" fill="#002D4B"/>
</g>
<defs>
<clipPath id="clip0_175_1176">
<rect width="26" height="26" fill="white" transform="translate(0.685364)"/>
</clipPath>
</defs>
</svg>
